# xmcd
#
# Track frame offsets: 
#        150
#        20667
#        31095
#        44952
#        57982
#        81855
#        101770
#        121735
#        133417
#        145945
#        154367
#        166747
#        187697
#        205480
#        217502
#        222682
#        239387
#        259730
#        281355
#        297927
#
# Disc length: 4290 seconds
#
# Revision: 3
# Processed by: cddbd v1.5.2PL0 Copyright (c) Steve Scherf et al.
# Submitted via: ExactAudioCopy v1.0b3
#
DISCID=3010c014
DTITLE=Александр Градский и группа Скоморохи - Легенды Русского Рока
DYEAR=2001
DGENRE=Rock
TTITLE0=Ничто в полюшке
TTITLE1=Синий Лес
TTITLE2=Беранже II
TTITLE3=Я - Гойя
TTITLE4=Любимая, наступает рассвет
TTITLE5=Песня о друге
TTITLE6=Бессмертье
TTITLE7=Обстановочка
TTITLE8=В полях под снегом и дождем
TTITLE9=В твоих глазах
TTITLE10=Ночное
TTITLE11=По четвергам старик приходит
TTITLE12=К России
TTITLE13=Я хочу быть понят моей страной
TTITLE14=Зимнее утро (как не в своем рассудке)
TTITLE15=Зимняя ночь
TTITLE16=Антиперестроечный блюз
TTITLE17=Памяти поэта (о В.С. Высоцком)
TTITLE18=Песня без названия
TTITLE19=Южная прощальная
EXTD=© 2001 Star Records
EXTT0=
EXTT1=
EXTT2=
EXTT3=
EXTT4=
EXTT5=
EXTT6=
EXTT7=
EXTT8=
EXTT9=
EXTT10=
EXTT11=
EXTT12=
EXTT13=
EXTT14=
EXTT15=
EXTT16=
EXTT17=
EXTT18=
EXTT19=
PLAYORDER=
